<?xml version="1.0" standalone="no"?>
<!DOCTYPE svg PUBLIC "-//W3C//DTD SVG 20010904//EN"
 "http://www.w3.org/TR/2001/REC-SVG-20010904/DTD/svg10.dtd">
<svg version="1.0" xmlns="http://www.w3.org/2000/svg"
 width="853.000000pt" height="1280.000000pt" viewBox="0 0 853.000000 1280.000000"
 preserveAspectRatio="xMidYMid meet">

<g transform="translate(0.000000,1280.000000) scale(0.100000,-0.100000)"
fill="#000000" stroke="none">
<path d="M5360 8816 c-62 -17 -84 -30 -99 -60 -8 -14 -31 -32 -53 -40 -23 -10
-42 -26 -48 -41 -5 -14 -17 -25 -28 -25 -10 0 -24 -13 -33 -32 -9 -18 -27 -55
-41 -83 -48 -95 -53 -188 -53 -962 0 -508 0 -523 -19 -523 -16 0 -18 -5 -13
-33 4 -29 -7 -92 -26 -137 -3 -8 -8 -94 -11 -190 -3 -96 -10 -204 -16 -240
-10 -57 -19 -281 -20 -452 0 -54 -2 -58 -39 -85 -21 -15 -46 -41 -55 -58 -11
-19 -35 -40 -65 -54 -45 -21 -51 -22 -78 -7 -18 9 -96 21 -198 31 -92 9 -176
20 -186 26 -27 14 -36 35 -49 124 -7 44 -16 87 -20 96 -5 8 -22 72 -38 142
-31 135 -30 147 19 147 25 0 27 3 33 61 6 51 4 66 -13 95 -27 46 -26 68 4 108
57 75 11 106 -49 32 -29 -35 -45 -45 -79 -50 -66 -11 -82 -14 -84 -16 -2 -2
-6 -3 -10 -5 -5 -1 -21 -7 -37 -14 -17 -7 -46 -11 -65 -9 -32 3 -39 9 -64 56
-27 51 -29 52 -72 52 -24 0 -47 -5 -50 -10 -13 -21 -115 -79 -130 -74 -8 4
-15 1 -15 -5 0 -6 -14 -10 -32 -8 -32 2 -33 3 -55 97 -12 52 -25 105 -28 118
-5 22 -45 33 -45 12 0 -5 6 -7 14 -4 17 6 18 3 50 -144 22 -104 24 -152 7
-152 -3 0 -20 64 -36 143 -16 78 -31 135 -32 127 -2 -8 5 -58 16 -110 23 -112
16 -130 -50 -130 -41 0 -57 -6 -134 -48 -49 -27 -50 -28 -53 -80 -2 -42 -8
-55 -27 -68 -15 -10 -31 -36 -41 -68 l-16 -51 40 -44 c37 -40 40 -49 46 -120
4 -45 13 -83 22 -92 12 -14 13 -25 5 -56 -9 -35 -8 -341 4 -873 13 -626 10
-700 -31 -700 -19 0 -34 -40 -34 -91 0 -42 -62 -189 -123 -294 -88 -150 -278
-391 -317 -401 -38 -10 -50 -24 -50 -56 0 -16 -6 -31 -14 -34 -12 -5 -126
-140 -181 -214 -11 -15 -56 -72 -100 -126 -45 -55 -96 -121 -115 -149 -56 -83
-149 -193 -187 -222 -21 -16 -46 -26 -59 -25 -12 2 -36 -4 -53 -12 -40 -21
-74 -20 -121 4 -59 30 -84 27 -97 -12 -6 -18 -21 -58 -32 -88 -28 -72 -26 -94
7 -122 50 -42 235 -128 342 -159 121 -34 258 -48 313 -30 23 8 74 50 145 120
129 128 197 180 310 238 64 33 94 43 131 43 85 0 85 0 -4 -270 -76 -231 -85
-280 -49 -266 9 3 21 6 28 6 15 0 19 10 111 243 90 227 120 291 194 401 24 37
26 46 25 150 -1 119 -11 347 -16 362 -2 5 20 32 47 59 63 63 229 237 276 290
20 22 79 82 131 133 84 81 100 92 131 92 33 0 38 -5 73 -62 32 -52 39 -74 42
-128 5 -70 14 -90 43 -90 15 0 19 7 19 34 0 42 10 50 36 31 10 -8 33 -15 51
-15 17 0 62 -7 100 -16 79 -18 115 -25 358 -64 99 -16 245 -36 325 -45 80 -9
161 -20 180 -25 19 -6 54 -10 78 -10 24 0 77 -11 118 -25 41 -14 79 -25 85
-25 7 0 37 -11 68 -24 31 -13 92 -38 136 -56 44 -18 88 -42 97 -54 10 -12 24
-28 31 -36 21 -24 65 -103 85 -156 11 -27 38 -88 61 -135 23 -48 45 -103 48
-123 5 -33 2 -40 -28 -66 -19 -16 -58 -41 -87 -56 -42 -21 -54 -33 -59 -56 -3
-16 -14 -35 -24 -41 -19 -12 -25 -52 -11 -73 21 -32 58 -37 262 -37 203 1 205
1 252 27 94 54 128 120 128 254 1 31 7 68 15 82 8 14 14 45 15 69 0 65 15 39
18 -32 4 -113 3 -137 -14 -200 -23 -85 -22 -197 2 -214 32 -23 70 -16 101 20
33 37 46 82 62 207 8 64 16 89 31 102 11 9 20 22 20 29 0 9 7 7 19 -6 31 -32
81 -173 92 -258 15 -123 47 -263 68 -304 25 -49 66 -87 115 -107 51 -21 71
-20 88 5 12 18 17 20 35 10 12 -6 45 -11 74 -11 l52 0 -7 41 c-6 38 -5 41 24
52 41 15 40 48 -5 137 -19 38 -35 76 -35 84 0 11 8 13 35 9 34 -5 35 -4 35 25
0 20 -12 45 -37 75 -21 25 -51 76 -66 114 -16 37 -49 109 -73 160 -24 50 -44
99 -44 108 0 10 21 25 55 41 31 13 58 31 61 39 7 16 -53 192 -67 201 -5 3 -9
15 -9 28 0 12 -6 31 -14 41 -8 12 -12 33 -8 57 2 22 0 44 -7 52 -10 12 -8 17
8 26 12 6 21 16 21 22 0 6 -6 5 -17 -3 -15 -13 -15 -12 -4 10 10 19 11 25 1
31 -8 5 -14 36 -16 76 -1 38 -6 114 -9 169 -6 83 -3 116 14 187 12 47 21 96
21 108 0 12 4 29 9 38 19 36 61 413 61 555 0 85 -25 191 -59 248 -11 19 -27
56 -35 82 -7 25 -23 59 -35 76 -12 17 -28 64 -36 106 -8 41 -22 89 -30 105
-10 19 -15 58 -15 116 0 80 -13 154 -31 179 -30 42 -40 182 -14 201 20 15 19
30 -1 38 -15 6 -16 22 -11 144 3 75 12 160 20 187 8 28 18 71 22 98 3 26 10
47 16 47 12 0 12 113 0 126 -13 13 -30 121 -41 249 -13 154 -32 199 -120 286
-67 66 -72 73 -76 121 -3 28 -14 64 -25 79 -10 15 -19 31 -19 36 0 5 -9 28
-20 50 -22 46 -114 282 -137 353 -8 25 -19 54 -24 65 -10 22 -36 146 -50 240
-5 33 -16 65 -24 71 -13 10 -29 59 -42 129 -3 17 -9 35 -13 40 -4 6 -10 25
-14 43 -6 34 -35 103 -46 112 -4 3 -10 34 -14 70 -5 51 -14 76 -42 119 -50 75
-52 77 -117 142 -103 103 -195 139 -402 159 -126 12 -159 11 -215 -4z m-35
-209 c136 -15 181 -38 234 -122 l31 -49 -38 -18 c-20 -9 -44 -18 -52 -18 -8 0
-38 -11 -67 -24 -38 -18 -54 -32 -59 -51 -9 -35 1 -41 39 -27 25 10 34 9 45
-1 16 -17 5 -48 -14 -40 -16 6 -19 -12 -4 -22 6 -3 10 -14 10 -24 0 -37 98
-52 163 -26 11 5 17 3 17 -5 0 -13 38 -50 51 -50 21 0 36 -59 54 -207 3 -29
11 -67 16 -85 13 -45 11 -125 -3 -151 -13 -26 -50 -67 -60 -67 -4 0 -23 -11
-43 -24 -19 -14 -67 -37 -106 -52 -111 -42 -217 -25 -247 41 -16 34 8 60 88
95 77 34 91 54 31 44 -26 -4 -46 -2 -55 5 -11 9 -19 9 -35 -1 -17 -10 -23 -10
-33 0 -16 16 4 32 39 32 12 0 25 5 29 11 4 8 28 10 68 6 69 -6 111 7 60 19
-16 4 -45 15 -64 24 -19 9 -59 20 -88 23 -29 3 -57 9 -63 12 -6 4 0 25 16 53
l26 47 -43 37 c-43 36 -43 37 -29 70 34 85 40 106 41 146 0 35 -6 49 -32 76
-18 18 -44 36 -58 39 -49 13 -50 16 -41 120 6 77 13 103 32 131 26 38 58 58
74 46 6 -4 37 -10 70 -13z m256 -258 c-25 -5 -49 -13 -54 -18 -5 -5 -16 -7
-24 -4 -8 3 -19 0 -23 -8 -5 -7 -12 -10 -16 -7 -15 16 62 48 111 47 l50 -1
-44 -9z m-351 -242 c0 -7 -12 -39 -26 -72 -14 -33 -27 -79 -28 -101 -3 -36 0
-41 16 -36 12 3 18 -1 18 -12 0 -9 7 -16 15 -16 19 0 19 -11 1 -35 -14 -19
-43 -15 -51 7 -2 7 -9 27 -15 43 -6 17 -11 32 -10 34 1 2 -5 8 -14 13 -19 11
-37 74 -30 103 3 12 23 33 46 46 22 13 45 29 51 35 14 13 27 9 27 -9z m542
-689 c-7 -7 -12 -8 -12 -2 0 14 12 26 19 19 2 -3 -1 -11 -7 -17z m88 18 c0 -3
-4 -8 -10 -11 -5 -3 -10 -1 -10 4 0 6 5 11 10 11 6 0 10 -2 10 -4z m-117 -33
c-4 -11 -3 -14 5 -9 14 8 15 5 6 -18 -3 -9 -10 -16 -16 -16 -5 0 -7 4 -3 9 3
5 1 13 -5 16 -8 5 -7 11 1 21 15 19 20 18 12 -3z m82 -1 c3 -9 1 -20 -4 -25
-5 -5 -12 -1 -16 13 -6 20 -7 21 -21 3 -7 -10 -14 -13 -14 -7 -1 28 45 42 55
16z m-33 -44 c-7 -7 -12 -8 -12 -2 0 14 12 26 19 19 2 -3 -1 -11 -7 -17z m-22
-6 c0 -5 -9 -17 -19 -26 -18 -16 -19 -16 -17 1 2 25 36 48 36 25z m-120 -16
c0 -3 -4 -8 -10 -11 -5 -3 -10 -1 -10 4 0 6 5 11 10 11 6 0 10 -2 10 -4z m-15
-125 c-3 -6 -11 -11 -17 -11 -6 0 -6 6 2 15 14 17 26 13 15 -4z m-145 -170 c0
-27 -24 -70 -33 -61 -7 7 -11 46 -8 95 l2 40 19 -24 c11 -13 20 -35 20 -50z
m-1260 -362 c0 -15 -59 -89 -71 -89 -17 0 -9 21 23 61 31 39 48 49 48 28z
m-422 -61 c18 -28 20 -58 3 -58 -17 1 -30 19 -36 53 -9 46 6 49 33 5z m-123
-27 c-6 -4 -23 -11 -40 -15 -28 -6 -29 -5 -11 9 21 16 67 22 51 6z m445 1 c0
-13 -12 -22 -22 -16 -10 6 -1 24 13 24 5 0 9 -4 9 -8z m-420 -12 c0 -5 -5 -10
-11 -10 -5 0 -7 5 -4 10 3 6 8 10 11 10 2 0 4 -4 4 -10z m-130 -24 c0 -7 -9
-16 -19 -19 -17 -4 -18 -2 -8 14 14 22 27 25 27 5z m171 -48 c-21 -39 -14 -58
22 -58 13 0 17 -5 13 -16 -3 -9 -6 -20 -6 -25 0 -16 -39 -10 -50 9 -9 13 -10
8 -7 -28 4 -45 78 -212 85 -192 2 6 -1 20 -7 31 -6 11 -11 34 -11 52 0 29 2
32 15 19 11 -12 16 -61 20 -235 5 -146 11 -228 19 -245 7 -14 16 -46 19 -73 6
-40 4 -49 -13 -59 -17 -11 -20 -24 -20 -89 0 -68 -2 -77 -20 -82 -19 -5 -20 0
-20 94 0 59 -4 99 -10 99 -11 0 -13 -126 -3 -209 5 -40 11 -55 24 -58 25 -7
36 -54 45 -183 5 -69 10 -97 15 -80 6 21 14 11 10 -12 0 -5 4 -8 9 -8 6 0 10
6 11 13 0 6 4 3 9 -8 13 -31 12 5 -1 43 -9 25 -7 38 5 63 9 18 17 48 17 68 2
33 2 34 6 6 2 -16 6 -37 9 -45 3 -8 7 -40 8 -70 1 -30 8 -68 16 -85 7 -16 13
-33 12 -37 -1 -5 3 -8 8 -8 6 0 10 -9 10 -19 0 -11 4 -22 9 -25 5 -3 7 -15 4
-25 -3 -10 0 -22 6 -25 6 -4 11 -16 11 -27 0 -10 5 -19 11 -19 7 0 9 -10 4
-27 -4 -16 -8 -34 -8 -40 0 -7 -3 -13 -7 -13 -4 0 -6 -10 -4 -22 1 -13 3 -67
3 -120 l1 -97 25 23 c32 30 35 85 5 93 -24 6 -26 38 -3 52 14 8 17 29 20 138
1 70 6 139 9 153 7 22 6 24 -9 11 -15 -11 -17 -11 -17 1 0 8 4 18 10 24 6 6 6
30 0 69 -10 64 -6 83 9 41 6 -14 13 -26 15 -26 3 0 -2 20 -12 45 -12 33 -22
45 -36 45 -19 0 -19 -1 -2 -13 16 -12 16 -14 2 -26 -20 -17 -21 -41 -1 -41 8
0 15 -4 15 -10 0 -5 -6 -10 -14 -10 -9 0 -16 -13 -18 -32 -3 -28 -5 -30 -12
-13 -4 11 -14 36 -22 55 -11 26 -12 42 -5 60 5 14 10 18 11 10 0 -12 2 -12 9
-2 5 8 7 39 4 70 -2 32 -6 102 -8 157 -3 55 -7 123 -10 150 -3 28 -6 78 -7
113 -2 34 -5 62 -8 62 -11 0 -27 -16 -32 -30 -3 -8 -5 3 -5 25 0 22 -4 84 -8
138 -6 75 -5 101 4 107 9 5 11 23 5 66 -7 53 -9 56 -16 29 -4 -18 -5 -2 -3 43
3 39 1 72 -4 72 -4 0 -8 27 -7 60 1 53 3 60 21 61 11 0 15 3 8 5 -7 3 -9 12
-6 21 4 11 2 14 -5 9 -13 -8 -27 36 -18 59 6 16 46 21 46 6 0 -5 -7 -14 -15
-21 -12 -10 -12 -14 0 -26 19 -19 28 -18 43 6 14 23 37 26 45 6 4 -10 -2 -16
-16 -18 -13 -2 -22 -10 -21 -19 1 -12 -4 -15 -19 -11 -18 5 -19 2 -13 -33 4
-20 12 -83 17 -139 5 -55 13 -132 18 -171 5 -38 7 -73 5 -76 -2 -4 1 -20 6
-35 10 -30 34 -289 31 -334 -2 -22 4 -68 25 -217 3 -18 10 -33 15 -33 6 0 16
-6 24 -13 17 -18 55 -144 54 -182 0 -17 3 -46 6 -65 4 -19 18 -98 32 -174 22
-124 24 -148 14 -213 -6 -41 -20 -92 -30 -114 -11 -22 -23 -53 -26 -70 -4 -16
-11 -27 -15 -24 -5 3 -7 -4 -5 -15 2 -11 -3 -37 -11 -58 -13 -33 -14 -34 -9
-7 l5 30 -15 -30 c-7 -16 -19 -51 -27 -77 -7 -27 -16 -48 -20 -48 -8 0 -12 54
-8 116 1 18 -3 35 -9 39 -7 4 -11 -10 -11 -40 0 -28 -4 -44 -10 -40 -9 6 -15
-21 -11 -52 2 -16 -39 -63 -56 -63 -7 0 -13 -4 -13 -9 0 -5 -15 -24 -33 -43
-18 -18 -45 -50 -60 -71 -16 -21 -53 -63 -83 -94 -30 -31 -54 -60 -54 -65 0
-4 -8 -8 -18 -8 -33 0 -42 34 -43 175 0 119 -3 135 -17 135 -13 0 -18 11 -20
45 -2 40 0 45 18 45 11 0 20 3 21 8 0 4 2 17 3 30 2 12 -1 22 -6 22 -4 0 -8
-7 -8 -15 0 -8 -4 -15 -10 -15 -8 0 -16 54 -11 83 0 4 -3 7 -9 7 -5 0 -10 -6
-10 -14 0 -8 -3 -23 -6 -33 -5 -15 -4 -15 5 -3 7 9 11 10 11 3 0 -6 -4 -15
-10 -18 -5 -3 -10 -18 -10 -33 0 -37 -41 -121 -80 -165 -32 -37 -35 -57 -7
-40 14 7 54 54 85 99 12 18 12 18 7 -3 -3 -12 -2 -24 4 -27 5 -3 7 -15 4 -26
-4 -16 -2 -19 13 -14 18 6 18 6 2 -7 -12 -10 -18 -37 -23 -104 -13 -188 -39
-268 -109 -342 -16 -18 -27 -33 -24 -33 3 0 -11 -18 -32 -41 -55 -59 -70 -78
-70 -87 0 -4 -22 -30 -50 -56 -27 -26 -50 -52 -50 -58 0 -5 -13 -29 -30 -53
-16 -24 -30 -46 -30 -50 0 -12 -64 -60 -76 -57 -19 4 -28 -19 -13 -30 11 -8
11 -9 -3 -5 -9 3 -19 3 -23 -1 -4 -4 -12 -7 -17 -7 -6 0 -13 -6 -15 -12 -3 -8
4 -13 17 -13 12 0 30 -5 42 -11 16 -9 25 -6 46 13 19 18 24 19 19 6 -5 -14 -1
-18 17 -18 13 0 27 -7 30 -16 8 -21 8 -20 -31 -29 -28 -5 -32 -4 -27 9 8 20
-1 20 -36 -1 -26 -15 -30 -15 -61 4 -25 14 -33 25 -31 41 2 17 -2 22 -17 22
-12 0 -29 9 -38 20 -18 21 -53 27 -53 9 0 -5 4 -8 8 -5 5 3 21 -6 38 -19 l29
-24 -35 2 c-25 2 -38 9 -45 25 -11 24 -24 29 -26 10 -1 -7 -5 -2 -9 12 -6 17
-8 20 -9 7 -1 -15 -8 -12 -48 17 -80 58 -113 90 -113 108 0 16 2 16 32 -2 43
-26 45 -26 52 15 4 21 13 35 21 35 8 0 15 5 15 11 0 6 11 20 25 31 14 11 25
28 25 38 0 10 7 20 15 24 8 3 15 12 15 19 0 8 7 20 15 27 22 18 92 123 109
164 8 20 20 36 25 36 6 0 11 9 11 20 0 11 4 20 9 20 5 0 17 21 27 48 10 26 23
54 31 63 7 8 13 24 13 34 0 10 6 26 14 34 25 29 55 89 62 126 3 20 9 33 12 30
3 -3 14 2 24 12 17 15 18 15 18 0 0 -10 4 -17 9 -17 5 0 11 -14 15 -32 6 -30
7 -31 26 -13 22 20 21 31 -12 102 -11 24 -18 49 -15 57 3 7 0 19 -6 25 -8 8
-8 11 1 11 6 0 14 16 18 35 3 19 10 35 14 35 4 0 16 23 26 50 10 28 21 50 26
50 4 0 5 7 2 15 -4 8 -1 15 5 15 6 0 11 5 11 10 0 6 11 28 25 50 14 22 25 44
25 50 0 5 27 38 60 72 33 35 60 69 60 76 0 7 5 10 10 7 6 -4 10 6 10 22 0 22
2 25 10 13 5 -8 10 -12 10 -8 0 3 7 42 15 85 18 94 18 96 -1 58 -14 -29 -14
-27 -9 38 2 38 13 87 24 110 11 23 22 49 25 57 3 8 5 -32 4 -90 -1 -58 -5
-110 -10 -116 -4 -6 -10 -24 -12 -40 -3 -29 -9 -46 -27 -92 -5 -13 -9 -49 -8
-80 0 -39 3 -51 8 -37 5 11 6 26 4 33 -3 6 0 12 6 12 13 0 14 -21 1 -76 -5
-23 -12 -61 -14 -85 -2 -24 -8 -52 -11 -62 -7 -16 -5 -16 18 -6 28 13 32 25
42 125 4 34 13 74 21 90 14 26 13 30 -3 41 -9 8 -23 11 -30 9 -9 -4 -13 8 -13
42 0 34 3 43 10 32 8 -12 10 -11 10 6 0 14 10 26 30 34 17 7 30 18 30 25 0 6
14 24 31 39 21 19 28 33 24 47 -4 10 -2 19 4 19 5 0 12 -8 15 -17 2 -10 4 46
3 125 -2 113 -5 145 -17 152 -8 5 -17 7 -21 5 -3 -3 -9 46 -13 108 -4 62 -9
126 -12 142 -7 43 -12 109 -15 190 -1 39 -4 54 -6 35 -4 -43 -18 -208 -35
-392 -11 -134 -12 -138 -35 -138 -14 0 -23 6 -23 15 0 8 6 15 13 15 8 0 8 3
-2 9 -8 5 -11 16 -8 25 4 9 2 16 -3 16 -6 0 -10 5 -10 11 0 6 6 9 14 6 19 -8
28 66 24 183 -2 71 -6 85 -19 82 -12 -2 -15 5 -11 28 2 17 -2 97 -9 178 -8 81
-14 175 -14 210 0 56 3 65 25 82 17 13 27 15 32 7 4 -6 4 -15 2 -19 -3 -4 6
-8 20 -8 27 0 33 -21 40 -135 6 -91 7 -93 18 -60 5 17 11 41 12 55 4 39 5 42
16 35 6 -4 8 -11 5 -16 -4 -5 -1 -9 5 -9 7 0 9 -16 5 -47 -3 -27 -1 -61 4 -78
8 -27 9 -24 10 27 1 31 6 60 12 64 8 4 8 9 0 17 -6 6 -11 38 -11 70 0 49 -6
71 -36 128 -36 68 -61 83 -49 29 5 -23 2 -31 -15 -40 -12 -6 -23 -10 -25 -8
-2 2 0 35 4 73 7 67 6 73 -26 137 -19 37 -32 72 -29 77 9 13 -3 38 -21 45 -10
4 -13 2 -10 -7 7 -19 -8 -41 -22 -33 -6 4 -11 15 -11 26 0 24 41 33 91 20 38
-10 41 -14 36 -39 -3 -15 -2 -33 2 -40 5 -8 10 1 14 26 7 42 54 100 69 85 6
-6 2 -22 -11 -44z m364 23 c-8 -17 -12 -37 -9 -45 7 -17 3 -19 -20 -10 -12 4
-13 11 -5 32 12 31 28 52 40 52 5 0 3 -13 -6 -29z m-585 2 c0 -10 -4 -24 -9
-31 -6 -11 -9 -10 -13 5 -3 10 -3 24 -1 31 7 18 23 15 23 -5z m310 7 c0 -5 -2
-10 -4 -10 -3 0 -8 5 -11 10 -3 6 -1 10 4 10 6 0 11 -4 11 -10z m-480 -29 c0
-10 -42 -23 -49 -15 -7 6 20 24 37 24 6 0 12 -4 12 -9z m850 -27 c16 -28 3
-48 -23 -38 -11 4 -17 18 -17 40 0 39 19 38 40 -2z m-805 6 c3 -5 -1 -10 -9
-10 -9 0 -16 5 -16 10 0 6 4 10 9 10 6 0 13 -4 16 -10z m81 -37 c-11 -11 -19
6 -11 24 8 17 8 17 12 0 3 -10 2 -21 -1 -24z m610 -30 c-10 -10 -19 5 -10 18
6 11 8 11 12 0 2 -7 1 -15 -2 -18z m-716 -28 c0 -26 -3 -33 -15 -29 -8 4 -15
15 -15 26 0 12 4 17 12 12 8 -5 9 -2 5 9 -3 10 -2 17 3 17 6 0 10 -16 10 -35z
m240 14 c0 -6 -4 -7 -10 -4 -5 3 -10 11 -10 16 0 6 5 7 10 4 6 -3 10 -11 10
-16z m267 -1 c-3 -8 -6 -5 -6 6 -1 11 2 17 5 13 3 -3 4 -12 1 -19z m-397 -28
c0 -11 7 -20 15 -20 17 0 21 -35 5 -45 -6 -4 -9 -14 -6 -23 3 -10 8 -37 11
-62 3 -25 16 -114 30 -198 14 -84 25 -164 25 -177 0 -14 5 -25 10 -25 6 0 10
-18 10 -40 0 -22 -4 -40 -10 -40 -5 0 -10 11 -10 25 0 22 -3 24 -19 16 -22
-12 -23 -7 -41 149 -5 52 -15 140 -22 195 -6 55 -12 121 -12 148 -1 26 -4 47
-7 47 -5 0 -5 56 0 68 5 11 21 -2 21 -18z m110 -2 c-1 -34 -27 -65 -42 -50 -9
9 -7 17 10 32 12 12 22 25 22 30 0 6 2 10 5 10 3 0 5 -10 5 -22z m459 -43 c0
-20 0 -20 -14 -1 -15 19 -15 19 -15 1 0 -25 -16 -8 -24 27 -5 20 -2 27 11 30
20 4 42 -26 42 -57z m-412 9 c7 -20 -17 -37 -34 -23 -15 13 -6 39 13 39 8 0
17 -7 21 -16z m-374 -19 c0 -6 -7 -11 -16 -13 -12 -3 -15 1 -11 13 7 17 25 17
27 0z m757 -39 c0 -13 5 -26 11 -28 12 -4 28 -75 29 -131 0 -21 4 -36 9 -32
13 8 25 -76 18 -132 -6 -54 -26 -73 -43 -40 -6 12 -17 87 -23 167 -17 202 -18
220 -9 220 5 0 8 -11 8 -24z m-381 -55 c1 -19 -2 -22 -11 -13 -15 15 -21 51
-12 72 5 11 8 9 14 -10 5 -14 8 -36 9 -49z m481 59 c0 -5 -4 -10 -10 -10 -5 0
-10 5 -10 10 0 6 5 10 10 10 6 0 10 -4 10 -10z m-912 -20 c26 -24 28 -52 6
-74 -29 -30 -40 4 -13 40 16 20 -3 23 -24 3 -37 -35 -47 -24 -20 22 21 35 23
35 51 9z m219 -12 c-3 -7 -5 -2 -5 12 0 14 2 19 5 13 2 -7 2 -19 0 -25z m452
-48 c6 -28 11 -60 11 -72 0 -14 5 -18 15 -14 8 3 15 1 15 -4 0 -6 -4 -10 -9
-10 -5 0 -13 -10 -17 -22 l-7 -23 -9 25 c-5 13 -11 36 -13 50 -2 14 -6 46 -10
73 -10 65 10 62 24 -3z m251 -86 c0 -13 5 -24 10 -24 6 0 10 -7 10 -15 0 -13
-3 -13 -19 -3 -21 13 -36 52 -26 69 10 15 25 0 25 -27z m-919 1 c0 6 4 1 9
-10 5 -11 9 -48 9 -83 1 -58 0 -62 -18 -53 -14 8 -20 25 -23 68 -6 67 0 102
13 81 5 -7 9 -8 10 -3z m79 -85 c0 -26 -17 -34 -28 -14 -6 12 -6 22 2 30 14
15 26 8 26 -16z m20 -69 c0 -5 -7 -11 -14 -14 -10 -4 -13 -1 -9 9 6 15 23 19
23 5z m870 -31 c0 -5 -4 -10 -10 -10 -5 0 -10 5 -10 10 0 6 5 10 10 10 6 0 10
-4 10 -10z m-938 -261 c4 -19 5 -82 1 -141 -6 -109 -1 -131 18 -81 8 22 12 24
19 13 12 -18 2 -51 -18 -66 -11 -8 -12 -13 -4 -18 7 -4 12 -20 12 -36 0 -23
-7 -33 -30 -45 l-30 -16 -2 38 c-11 279 7 473 34 352z m248 6 c0 -8 -4 -15
-10 -15 -5 0 -7 7 -4 15 4 8 8 15 10 15 2 0 4 -7 4 -15z m96 -10 c1 -14 -2
-25 -6 -25 -20 0 -40 13 -40 26 0 7 6 11 14 8 8 -3 17 -1 21 5 9 15 10 14 11
-14z m284 -6 c-7 -11 -14 -18 -17 -15 -3 3 0 12 7 21 18 21 23 19 10 -6z m420
-34 c8 -2 15 -4 15 -6 0 -1 11 -3 25 -4 26 -3 65 -12 65 -15 0 -1 7 -3 15 -5
57 -12 75 -13 86 -4 21 17 35 2 24 -27 -7 -17 -7 -23 0 -19 13 8 80 -16 74
-27 -3 -4 2 -5 11 -2 9 4 21 0 28 -9 7 -9 30 -23 52 -31 22 -8 59 -21 83 -30
60 -22 199 -93 207 -105 3 -6 -5 -16 -17 -24 -78 -47 -205 -128 -216 -138 -7
-6 -11 -18 -8 -26 4 -9 2 -21 -4 -28 -7 -8 -1 -26 20 -59 17 -26 30 -50 30
-54 0 -4 16 -27 35 -51 19 -24 35 -48 35 -52 0 -5 8 -17 18 -27 9 -9 41 -67
71 -127 30 -61 60 -122 68 -137 10 -21 11 -33 3 -48 -8 -15 -8 -20 1 -20 7 0
10 -3 6 -6 -3 -4 -27 8 -53 25 -26 17 -53 31 -59 31 -7 0 -20 9 -29 19 -10 11
-29 22 -44 26 -14 3 -32 15 -40 26 -7 10 -22 19 -32 19 -24 0 -107 44 -142 75
-15 14 -30 25 -33 25 -3 0 -16 11 -28 23 -12 13 -42 32 -67 43 -25 10 -51 27
-58 36 -7 10 -31 27 -53 38 -21 11 -39 24 -39 29 0 5 -13 14 -29 21 -16 6 -38
22 -49 35 -25 29 -32 96 -12 120 12 14 12 18 -1 26 -8 5 -17 9 -20 9 -10 0
-20 -31 -13 -41 3 -5 -5 -9 -18 -8 -13 0 -17 3 -10 6 18 7 15 21 -11 46 -21
19 -26 41 -43 182 -18 141 -20 204 -8 192 2 -2 13 -55 24 -118 24 -141 48
-225 68 -242 13 -10 15 -9 8 8 -21 50 -62 355 -57 420 1 16 3 17 11 5 8 -12
10 -12 16 4 7 18 26 18 94 1z m-912 -108 c-15 -29 -21 -12 -13 30 7 35 8 36
15 13 4 -14 3 -33 -2 -43z m732 29 c0 -17 -14 -29 -23 -20 -8 8 3 34 14 34 5
0 9 -6 9 -14z m-828 -28 c-18 -19 -22 -20 -22 -6 0 9 8 21 17 27 27 15 29 3 5
-21z m2185 -48 c-2 -24 -13 -26 -21 -4 -3 8 -10 12 -16 9 -5 -3 -10 -2 -10 4
0 10 30 20 42 14 4 -2 6 -12 5 -23z m-2067 -1 c0 -4 -7 -6 -15 -3 -8 4 -15 10
-15 15 0 4 7 6 15 3 8 -4 15 -10 15 -15z m-164 -221 c-3 -13 -6 -29 -6 -36 0
-7 -4 -10 -10 -7 -11 7 -14 48 -3 58 14 15 25 6 19 -15z m774 -143 c0 -8 -2
-15 -4 -15 -2 0 -6 7 -10 15 -3 8 -1 15 4 15 6 0 10 -7 10 -15z m-765 -45 c3
-5 1 -10 -4 -10 -6 0 -11 5 -11 10 0 6 2 10 4 10 3 0 8 -4 11 -10z m790 0 c3
-5 -1 -10 -9 -10 -9 0 -16 5 -16 10 0 6 4 10 9 10 6 0 13 -4 16 -10z m-798
-112 c-3 -7 -5 -2 -5 12 0 14 2 19 5 13 2 -7 2 -19 0 -25z m0 -335 c-2 -16 -4
-3 -4 27 0 30 2 43 4 28 2 -16 2 -40 0 -55z m1179 -545 c22 -13 54 -30 72 -37
17 -8 32 -17 32 -20 0 -9 82 -51 98 -51 6 0 14 -5 17 -10 9 -15 -42 -32 -110
-36 -86 -6 -245 24 -245 45 0 11 -59 33 -70 26 -5 -3 -10 -2 -10 2 0 5 -14 14
-31 20 -25 10 -30 16 -24 30 4 10 7 26 7 35 -1 21 26 25 139 22 71 -2 94 -7
125 -26z m-469 -30 c-3 -7 -5 -2 -5 12 0 14 2 19 5 13 2 -7 2 -19 0 -25z m113
-62 c0 -8 3 -23 7 -33 6 -16 5 -16 -10 -4 -18 15 -23 51 -7 51 6 0 10 -6 10
-14z m-1295 -628 c19 -13 40 -34 47 -48 7 -14 15 -27 18 -30 10 -10 31 -45 36
-62 4 -10 10 -18 15 -18 18 0 8 -28 -12 -33 -15 -4 -19 -11 -15 -25 6 -16 1
-21 -22 -27 -16 -3 -33 -5 -38 -4 -5 1 -17 -1 -27 -6 -12 -5 -23 -1 -37 15
-11 13 -20 28 -20 33 0 6 -7 19 -17 29 -9 10 -12 18 -7 18 5 0 9 12 10 28 1
34 11 116 14 120 1 1 4 7 5 12 1 6 3 12 4 15 2 9 10 6 46 -17z m4155 -20 c0
-19 -2 -20 -10 -8 -13 19 -13 30 0 30 6 0 10 -10 10 -22z m-3940 -82 c0 -11
-19 -15 -25 -6 -3 5 1 10 9 10 9 0 16 -2 16 -4z m-399 -18 c1 -7 1 -30 0 -51
-3 -42 22 -83 93 -151 39 -36 43 -38 91 -33 101 11 122 15 143 26 46 24 43 4
-5 -43 -41 -40 -28 -48 25 -16 57 35 63 13 20 -82 -12 -26 -24 -47 -27 -46
-18 2 -33 -3 -28 -9 7 -7 -11 -33 -23 -33 -4 0 -7 8 -6 18 1 12 -7 18 -27 20
-39 5 -48 -25 -16 -51 l24 -20 -28 5 c-21 4 -27 2 -23 -8 4 -10 -2 -12 -24 -7
-31 6 -90 -13 -90 -28 0 -5 -7 -9 -16 -9 -9 0 -28 -7 -42 -15 -15 -8 -54 -26
-87 -40 -33 -15 -70 -31 -82 -37 -12 -6 -35 -11 -50 -12 -21 -1 -28 -6 -29
-21 -2 -36 -5 -40 -14 -20 -8 19 -9 19 -9 -2 -1 -12 -10 -27 -20 -33 -25 -13
-27 -13 -45 6 -23 22 -20 86 4 117 33 42 53 99 51 151 0 38 2 47 11 38 19 -19
25 -15 44 34 19 49 39 43 28 -8 -3 -17 -1 -28 5 -28 6 0 11 7 11 16 0 13 3 14
14 5 18 -15 39 8 26 29 -12 19 -13 60 -2 60 16 0 30 45 26 85 -1 22 2 45 8 52
5 7 8 16 5 20 -3 4 -7 28 -8 52 -3 37 0 45 16 47 10 1 22 10 27 18 11 19 27
21 29 4z m637 -122 c15 -123 15 -179 2 -171 -5 3 -14 -13 -20 -35 -6 -22 -15
-38 -20 -35 -6 3 -7 -1 -4 -10 5 -13 2 -15 -19 -10 -19 5 -28 2 -37 -14 -6
-12 -17 -21 -25 -21 -8 0 -15 -7 -15 -15 0 -13 -4 -14 -21 -5 -15 9 -24 8 -35
-1 -13 -10 -17 -10 -24 2 -12 18 -46 -1 -44 -25 1 -9 -2 -16 -6 -16 -18 0 -14
37 7 80 13 25 23 53 23 63 0 16 11 43 60 152 10 22 24 58 31 80 8 22 21 45 29
50 17 11 79 32 96 32 6 0 15 -41 22 -101z m-192 2 c3 -4 -5 -5 -17 -3 -13 3
-27 -2 -35 -13 -14 -20 -29 -10 -20 13 6 16 63 18 72 3z m-546 -8 c0 -5 -4
-10 -10 -10 -5 0 -10 5 -10 10 0 6 5 10 10 10 6 0 10 -4 10 -10z m500 -94 c0
-3 -4 -8 -10 -11 -5 -3 -10 -1 -10 4 0 6 5 11 10 11 6 0 10 -2 10 -4z m-1160
-321 c5 -3 10 -14 10 -24 0 -22 -36 -34 -61 -20 -19 10 -34 44 -25 58 6 9 53
0 76 -14z m3950 10 c0 -21 -24 -29 -49 -15 -32 16 -25 30 14 30 25 0 35 -4 35
-15z m-3770 -15 c0 -5 -4 -10 -10 -10 -5 0 -10 5 -10 10 0 6 5 10 10 10 6 0
10 -4 10 -10z m20 -35 c0 -5 14 -26 30 -45 23 -27 32 -32 39 -21 5 7 14 10 20
7 16 -10 13 -36 -4 -36 -16 0 -18 -12 -9 -48 7 -23 7 -23 21 -2 17 24 61 27
70 3 7 -19 -33 -57 -53 -49 -23 9 -23 -8 -3 -54 19 -42 19 -43 1 -27 -10 9
-22 14 -27 10 -4 -5 -5 -2 -1 5 5 8 -2 22 -18 37 -14 13 -26 29 -26 35 0 6 -4
8 -10 5 -6 -4 -10 6 -10 22 -1 15 -7 39 -15 53 -8 14 -14 39 -15 57 0 23 -6
33 -20 38 -11 3 -20 10 -20 15 0 12 50 7 50 -5z m3830 -6 c0 -6 7 -8 16 -5 14
5 15 4 4 -9 -15 -18 -53 -20 -82 -4 -17 9 -18 13 -7 20 20 12 69 11 69 -2z
m-4082 -28 c39 4 48 -1 29 -15 -36 -27 1 -30 131 -10 17 3 32 1 32 -4 0 -9
-39 -20 -80 -24 -21 -2 -30 -19 -24 -45 8 -32 -3 -45 -26 -30 -11 6 -20 17
-20 24 0 7 -3 12 -7 12 -28 -5 -44 7 -68 48 -27 45 -27 47 -9 60 16 12 19 12
22 -2 2 -9 11 -15 20 -14z m4621 15 c10 -11 9 -24 0 -56 -10 -33 -17 -40 -33
-38 -16 2 -22 11 -24 42 -2 21 -1 44 2 52 7 18 40 18 55 0z m-3337 -28 c-7 -7
-12 -8 -12 -2 0 6 3 14 7 17 3 4 9 5 12 2 2 -3 -1 -11 -7 -17z m4032 -3 c24
-37 19 -51 -9 -25 -25 23 -33 50 -16 50 5 0 16 -11 25 -25z m-4043 -32 c7 -19
6 -28 -2 -34 -6 -3 -11 -18 -11 -33 0 -14 -4 -23 -9 -20 -5 3 -6 -1 -3 -9 3
-8 -13 -53 -34 -99 -22 -47 -43 -95 -47 -107 -7 -24 -25 -29 -25 -6 0 8 5 15
11 15 5 0 8 4 4 10 -7 11 91 310 101 310 3 0 9 -12 15 -27z m3949 -14 c0 -11
-4 -17 -10 -14 -5 3 -10 13 -10 21 0 8 5 14 10 14 6 0 10 -9 10 -21z m-230
-50 c0 -6 -4 -7 -10 -4 -5 3 -10 11 -10 16 0 6 5 7 10 4 6 -3 10 -11 10 -16z
m-4860 -5 c0 -8 -4 -12 -10 -9 -5 3 -10 1 -10 -6 0 -7 -3 -9 -6 -6 -4 4 -1 13
6 22 16 19 20 19 20 -1z m4977 -14 c-3 -11 -1 -20 4 -20 13 0 40 -45 42 -69 0
-11 3 -18 6 -16 2 3 10 -7 17 -21 12 -22 11 -28 -1 -40 -23 -23 -48 1 -69 65
-17 52 -16 121 1 121 3 0 3 -9 0 -20z m-4371 -5 c-24 -18 -33 -19 -42 -3 -4 7
-3 8 4 4 7 -4 20 -2 29 3 26 15 31 13 9 -4z m-523 -42 c-3 -7 -9 -13 -14 -13
-11 0 -12 34 -2 43 9 10 22 -13 16 -30z m453 -22 c-4 -6 -14 -11 -22 -11 -8 0
-13 -4 -10 -9 8 -12 -21 -34 -33 -26 -6 3 -9 0 -6 -7 6 -16 -52 -41 -61 -27
-3 5 3 9 13 10 16 0 16 1 -2 8 -17 7 -16 10 17 25 20 10 44 26 53 36 10 11 24
16 33 13 11 -5 13 -3 7 8 -6 11 -5 11 5 2 7 -6 9 -16 6 -22z m4650 -27 c16
-38 18 -54 6 -54 -12 0 -42 56 -42 80 0 29 19 16 36 -26z m-310 21 c7 -5 10
-13 8 -16 -2 -3 5 -23 16 -43 15 -30 16 -36 4 -32 -9 3 -12 1 -9 -4 3 -6 -1
-13 -10 -16 -26 -10 -48 20 -55 75 -6 46 -5 50 14 48 12 -1 26 -6 32 -12z
m-4540 -55 c12 0 21 -7 21 -15 0 -8 -9 -15 -19 -15 -10 0 -18 5 -18 10 0 6
-11 10 -25 10 -14 0 -25 5 -25 11 0 7 9 9 23 5 12 -3 31 -6 43 -6z m48 -20
c-6 -6 -10 -3 -10 10 0 13 4 16 10 10 7 -7 7 -13 0 -20z m4755 -74 c7 -8 9
-21 5 -27 -5 -9 -11 -7 -21 6 -7 11 -13 15 -13 10 0 -4 -9 2 -20 15 -31 36
-26 56 8 31 16 -11 34 -27 41 -35z m-180 9 c51 -58 36 -75 -25 -29 -34 26 -46
64 -20 64 8 0 28 -16 45 -35z"/>
<path d="M5311 8001 c-11 -7 -7 -13 17 -25 17 -9 36 -16 42 -16 17 0 11 29 -9
40 -24 12 -32 12 -50 1z"/>
<path d="M3611 6144 c0 -11 3 -14 6 -6 3 7 2 16 -1 19 -3 4 -6 -2 -5 -13z"/>
<path d="M3930 6061 c0 -10 24 -21 43 -21 7 0 3 7 -7 15 -22 17 -36 19 -36 6z"/>
<path d="M3650 5974 c0 -8 5 -12 10 -9 6 4 8 11 5 16 -9 14 -15 11 -15 -7z"/>
<path d="M3652 5892 c0 -23 3 -44 8 -47 13 -8 18 55 5 72 -11 14 -13 10 -13
-25z"/>
<path d="M3625 5820 c3 -5 8 -10 11 -10 2 0 4 5 4 10 0 6 -5 10 -11 10 -5 0
-7 -4 -4 -10z"/>
<path d="M3651 5814 c0 -11 3 -14 6 -6 3 7 2 16 -1 19 -3 4 -6 -2 -5 -13z"/>
<path d="M3758 5794 c-3 -2 -3 -17 0 -34 5 -33 32 -42 32 -10 0 11 -6 20 -12
20 -10 0 -10 2 0 9 11 7 11 9 -1 14 -8 3 -17 4 -19 1z"/>
<path d="M3830 4829 c0 -5 5 -7 10 -4 6 3 10 8 10 11 0 2 -4 4 -10 4 -5 0 -10
-5 -10 -11z"/>
<path d="M4020 4619 c0 -5 5 -7 10 -4 6 3 10 8 10 11 0 2 -4 4 -10 4 -5 0 -10
-5 -10 -11z"/>
<path d="M3627 4573 c-13 -12 -7 -33 8 -33 8 0 15 9 15 20 0 20 -11 26 -23 13z"/>
<path d="M3856 4461 c-4 -7 -5 -15 -2 -18 9 -9 19 4 14 18 -4 11 -6 11 -12 0z"/>
<path d="M3820 4434 c0 -8 5 -12 10 -9 6 3 10 10 10 16 0 5 -4 9 -10 9 -5 0
-10 -7 -10 -16z"/>
<path d="M3627 4356 c-4 -15 -6 -31 -2 -34 10 -10 16 6 13 35 l-3 28 -8 -29z"/>
<path d="M3328 4163 c6 -2 18 -2 25 0 6 3 1 5 -13 5 -14 0 -19 -2 -12 -5z"/>
<path d="M4461 5548 c-11 -25 -11 -32 0 -39 8 -5 20 -2 31 8 23 20 23 35 0 49
-15 10 -20 7 -31 -18z"/>
<path d="M4163 5320 c0 -25 2 -35 4 -22 2 12 2 32 0 45 -2 12 -4 2 -4 -23z"/>
<path d="M4364 5342 c-22 -17 -64 -91 -64 -112 0 -24 28 -7 44 28 25 50 47
102 44 102 -2 0 -13 -8 -24 -18z"/>
<path d="M6926 3666 c3 -9 11 -16 16 -16 13 0 5 23 -10 28 -7 2 -10 -2 -6 -12z"/>
</g>
</svg>
